<?xml version="1.0" encoding="utf-8"?>
<!-- Generator: Adobe Illustrator 25.2.1, SVG Export Plug-In . SVG Version: 6.00 Build 0)  -->
<svg version="1.1" id="Ebene_1" xmlns="http://www.w3.org/2000/svg" xmlns:xlink="http://www.w3.org/1999/xlink" x="0px" y="0px"
	 width="66.3px" height="77.9px" viewBox="0 0 66.3 77.9" style="enable-background:new 0 0 66.3 77.9;" xml:space="preserve">
<style type="text/css">
	.st0{fill:#FFFFFF;}
</style>
<g id="Gruppe_13" transform="translate(-160.159 -260.951)">
	<g id="Gruppe_12" transform="translate(160.159 260.951)">
		<path id="Pfad_22" class="st0" d="M65.3,10.4c-0.2,0-0.3,0-0.4,0.2c-1.3,1.8-2.7,3.5-4.2,5.2c-0.2,0.2-0.1,0.5,0,0.7
			c0.2,0.2,0.5,0.1,0.6,0c1.3-1.4,2.5-2.9,3.7-4.5c0.8,3.4,2.2,16.2-19.1,25.1c-0.2-0.7-0.5-1.3-1-1.8L39.6,30
			c4.2-0.9,11.7-3.6,19.4-11.1c0.2-0.2,0.2-0.5,0-0.7s-0.5-0.2-0.6,0c-7.9,7.8-15.5,10.2-19.5,11l-5-4.9c-1.5-1.5-4-1.5-5.5,0
			l-5.7,5.8c-0.6,0.7-1,1.5-1.1,2.5C14.6,36.8,2.9,46.1,0,61.9c-0.1,0.7,0,1.4,0.5,1.9c0.4,0.6,1,0.9,1.7,1l5.3,0.6
			c0.1,0,0.2,0,0.3,0c1.2,0,2.3-0.9,2.5-2.1c2.5-12.6,13.6-20,17.6-22.3c-4.4,5.3-11.3,15.9-11.1,29.3c0,0.3,0.2,0.5,0.5,0.4
			c0.2,0,0.4-0.2,0.4-0.5C17.5,57,24.3,46.7,28.6,41.5l5.2,5.1c0.3,0.3,0.7,0.6,1.1,0.8c-3.4,4.3-10.2,14.5-8.3,26.6
			c0.1,0.8-0.4,1.6-1.2,1.8L20.2,77c-0.4,0.1-0.9,0-1.3-0.2s-0.6-0.6-0.7-1c-0.1-0.8-0.2-1.6-0.3-2.4c0-0.3-0.3-0.4-0.5-0.4
			c-0.3,0-0.4,0.3-0.4,0.5l0,0c0.1,0.8,0.2,1.6,0.3,2.5c0.1,0.7,0.5,1.3,1.1,1.7c0.6,0.4,1.3,0.5,2,0.4l5.2-1.2
			c1.3-0.3,2.1-1.6,1.9-2.9c-1.8-12,5.1-22.2,8.4-26.2c1.2,0.2,2.5-0.2,3.4-1.1l5.7-5.8c0.7-0.7,1.1-1.7,1.1-2.8
			C71.8,27.5,65.7,11,65.6,10.8C65.6,10.6,65.5,10.5,65.3,10.4L65.3,10.4z M9.4,63.2c-0.2,0.8-0.9,1.4-1.8,1.3l-5.3-0.6
			c-0.4-0.1-0.8-0.3-1.1-0.6C1,62.9,0.9,62.5,1,62c2.7-15.2,13.9-24.2,20.6-28.3c0.2,0.7,0.5,1.4,1.1,2l4.7,4.6
			C23.2,42.7,11.9,50.2,9.4,63.2L9.4,63.2z M44.3,40.1l-5.7,5.8c-0.5,0.6-1.3,0.9-2.1,0.9c-0.2,0-0.4,0-0.7-0.1h-0.1
			c-0.5-0.1-1-0.4-1.3-0.8L23.3,35c-1.2-1.1-1.2-3,0-4.1l0,0L29,25c1.1-1.2,3-1.2,4.1,0l11.1,11C45.5,37.1,45.5,39,44.3,40.1
			L44.3,40.1z M38.5,28.2c0,0,0.1,0,0.2,0c1-0.1,1.9-0.3,2.9-0.7c0,0,0.1,0,0.1-0.1C49,21.8,53,15.8,53.6,9.9
			C54,6.5,53.1,3,51.1,0.2C51,0,50.8,0,50.7,0c-0.2,0-0.3,0.1-0.4,0.3C46.9,8.6,41,15.6,33.5,20.5c-0.8,0.5-1,1.6-0.5,2.5
			c0.1,0.1,0.1,0.2,0.2,0.3l5,4.9C38.3,28.2,38.4,28.2,38.5,28.2L38.5,28.2z M33.6,21.9c0-0.3,0.2-0.5,0.4-0.6
			c7.4-4.8,13.3-11.7,16.9-19.9c1.5,2.5,2.2,5.5,1.9,8.4c-0.6,5.7-4.5,11.4-11.6,16.9c-0.8,0.3-1.6,0.5-2.4,0.6l-4.9-4.7
			C33.7,22.4,33.6,22.2,33.6,21.9L33.6,21.9z M35.2,32.4c-1.7-0.7-3.7,0-4.5,1.7s0,3.7,1.7,4.5c1.7,0.7,3.7,0,4.5-1.7
			c0.4-0.8,0.4-1.7,0.1-2.6C36.6,33.4,36,32.7,35.2,32.4z M34.7,37.8c-1.3,0.5-2.7-0.1-3.3-1.4c-0.5-1.3,0.1-2.7,1.4-3.3
			c1.3-0.5,2.7,0.1,3.3,1.4C36.6,35.8,36,37.2,34.7,37.8L34.7,37.8z M55.4,50.1v4.1c0,0.3-0.2,0.5-0.4,0.5c-0.3,0-0.5-0.2-0.5-0.4
			l0,0v-4.1c0-0.3,0.2-0.5,0.5-0.4C55.1,49.7,55.3,49.9,55.4,50.1L55.4,50.1z M55.4,57v4.1c0,0.3-0.2,0.5-0.4,0.5
			c-0.3,0-0.5-0.2-0.5-0.4l0,0V57c0-0.3,0.2-0.5,0.5-0.4C55.1,56.6,55.3,56.8,55.4,57z M60.8,55.6c0,0.3-0.2,0.5-0.5,0.5l0,0h-4.1
			c-0.3,0-0.5-0.2-0.5-0.4c0-0.3,0.2-0.5,0.4-0.5l0,0h4.1C60.6,55.2,60.8,55.4,60.8,55.6L60.8,55.6L60.8,55.6z M54,55.6
			c0,0.3-0.2,0.5-0.5,0.5l0,0h-4.1c-0.3,0-0.5-0.2-0.5-0.4c0-0.3,0.2-0.5,0.4-0.5l0,0h4.1C53.8,55.2,54,55.4,54,55.6L54,55.6z
			 M7.6,27.1c0,0.3-0.2,0.5-0.4,0.5c-0.3,0-0.5-0.2-0.5-0.4l0,0v-3.3c0-0.3,0.2-0.5,0.5-0.4c0.2,0,0.4,0.2,0.4,0.4V27.1z M7.6,29.3
			v3.3c0,0.3-0.2,0.5-0.5,0.4c-0.2,0-0.4-0.2-0.4-0.4v-3.3c0-0.3,0.2-0.5,0.4-0.5C7.4,28.8,7.6,29,7.6,29.3L7.6,29.3z M8.3,27.7h3.3
			c0.3,0,0.5,0.2,0.5,0.5s-0.2,0.5-0.5,0.5H8.3c-0.3,0-0.5-0.2-0.5-0.5C7.8,27.9,8,27.7,8.3,27.7z M6,27.7c0.3,0,0.5,0.2,0.5,0.5
			S6.3,28.7,6,28.7H2.7c-0.3,0-0.5-0.2-0.5-0.5s0.2-0.5,0.5-0.5H6z M21.4,5.8C21,7.4,22,9,23.6,9.3s3.1-0.7,3.4-2.2
			c0.2-0.7,0-1.5-0.4-2.2c-0.1-0.2-0.1-0.5,0.1-0.6s0.5-0.1,0.6,0.1l0,0c1.1,1.8,0.6,4.2-1.1,5.3c-1.8,1.1-4.2,0.6-5.3-1.1
			c-1.1-1.8-0.6-4.2,1.1-5.3c0.9-0.6,2-0.7,3-0.5c0.3,0.1,0.4,0.3,0.3,0.6S25,3.8,24.7,3.7C23.3,3.3,21.8,4.2,21.4,5.8L21.4,5.8
			L21.4,5.8z"/>
	</g>
</g>
</svg>
