<?xml version="1.0" encoding="utf-8"?>
<!-- Generator: Adobe Illustrator 25.2.1, SVG Export Plug-In . SVG Version: 6.00 Build 0)  -->
<svg version="1.1" id="Ebene_1" xmlns="http://www.w3.org/2000/svg" xmlns:xlink="http://www.w3.org/1999/xlink" x="0px" y="0px"
	 width="98.1px" height="98.1px" viewBox="0 0 98.1 98.1" style="enable-background:new 0 0 98.1 98.1;" xml:space="preserve">
<style type="text/css">
	.st0{fill:#FFFFFF;}
</style>
<g id="Gruppe_296" transform="translate(-1455.5 -1455.688)">
	<g id="Gruppe_302" transform="translate(1455.5 1455.688)">
		<g id="Gruppe_301" transform="translate(0 0)">
			<path id="Pfad_987" class="st0" d="M19.1,78.2L0.2,97.1C0.1,97.2,0,97.4,0,97.5c0,0.3,0.2,0.6,0.6,0.6h97c0.3,0,0.6-0.3,0.6-0.6
				c0-0.1-0.1-0.3-0.2-0.4L88.9,88c-0.2-0.2-0.6-0.2-0.8,0c-0.1,0.1-0.2,0.2-0.2,0.4c0,0.1,0.1,0.3,0.2,0.4l8.1,8.1H53.3l19-19
				c1.3-1.3,3.5-1.3,4.9,0l6.2,6.2c0.2,0.2,0.6,0.2,0.8,0c0.2-0.2,0.2-0.6,0-0.8l0,0L78,77.2c-1.8-1.8-4.7-1.8-6.4,0l-6.3,6.3
				L54.6,72.8l1.2-0.5c3.5-1.6,6-4.6,7-8.3l3.3-12.2c0.1-0.3-0.1-0.6-0.4-0.7l-8.1-2.2L68,10.2l2.2,0.6c1,0.3,2.1,0.1,3-0.4
				C74.1,9.8,74.7,9,75,8s0.1-2.1-0.4-3l0,0c-0.5-0.8-1.3-1.5-2.3-1.7l-12-3.2c-1-0.3-2-0.1-2.9,0.4s-1.5,1.3-1.8,2.3
				c-0.5,2.1,0.7,4.2,2.7,4.7l2.2,0.6l-4.3,16.1c-0.1,0.3,0.1,0.6,0.4,0.7s0.6-0.1,0.7-0.4l4.3-16.1l5.3,1.4L54,58
				c-0.4,1.5-1.9,2.3-3.4,1.9s-2.3-1.9-1.9-3.4L55.6,31c0.1-0.3-0.1-0.6-0.4-0.7c-0.3-0.1-0.6,0.1-0.7,0.4l0,0L50.1,47L42,44.8
				c-0.1,0-0.3,0-0.4,0.1c-0.1,0.1-0.2,0.2-0.3,0.3L38,57.4c-0.2,0.7-0.3,1.4-0.4,2.1c0,0.3,0,0.6-0.1,1v0.6l-0.6,0.2
				c-1,0.4-2,1-2.8,1.7L23.8,73.5c-0.2,0.2-0.2,0.6,0,0.8c0.2,0.2,0.6,0.2,0.8,0l0,0l10.6-10.6c2.5-2.5,6.4-2.5,8.9,0l20.5,20.5
				L51.7,97h-6.4L32.7,84.4c-1.2-1.2-3.2-1.2-4.4,0l0,0L15.7,97H1.9l18-18c0.2-0.2,0.2-0.6,0-0.8C19.6,78,19.3,78,19.1,78.2
				L19.1,78.2z M58.6,6.5c-1.5-0.4-2.3-1.9-2-3.4C57,1.6,58.5,0.8,60,1.2l11.9,3.2c1.5,0.4,2.4,1.8,2,3.3v0.1v0.1
				c-0.4,1.2-1.4,2-2.6,2c-0.2,0-0.5,0-0.7-0.1L58.6,6.5z M53.7,71.9L44.8,63c-1.4-1.3-3.2-2.1-5.1-2.2h-1l0.1-1
				c0.1-0.7,0.2-1.5,0.4-2.2L42.3,46l7.6,2l-2.2,8.3c-0.6,2,0.6,4.2,2.6,4.7s4.2-0.6,4.7-2.6v-0.1l2.2-8.3l7.6,2l-3.1,11.7
				c-0.5,2-1.6,3.8-3,5.2c-1.3,1.2-2.8,2.2-4.5,2.8L53.7,71.9z M29.1,85.1c0.4-0.4,0.9-0.6,1.4-0.6s1.1,0.2,1.4,0.6L43.8,97H17.3
				L29.1,85.1z"/>
			<g id="Gruppe_300" transform="translate(15.222 68.19)">
				<path id="Pfad_988" class="st0" d="M21.4,6h-1.8C19.3,6,19,6.2,19,6.5s0.2,0.6,0.5,0.6h0.1h1.8c0.3,0,0.6-0.2,0.6-0.5
					C22,6.3,21.8,6.1,21.4,6L21.4,6z"/>
				<path id="Pfad_989" class="st0" d="M25.7,0h-1.8c-0.3,0-0.6,0.2-0.6,0.5s0.2,0.6,0.5,0.6h0.1h1.8c0.3,0,0.6-0.2,0.6-0.5
					C26.3,0.3,26,0,25.7,0L25.7,0z"/>
				<path id="Pfad_990" class="st0" d="M38.4,17h-1.8c-0.3,0-0.5,0.3-0.5,0.6c0,0.3,0.2,0.5,0.5,0.5h1.8c0.3,0,0.5-0.3,0.5-0.6
					C38.9,17.3,38.7,17.1,38.4,17z"/>
				<path id="Pfad_991" class="st0" d="M26.5,14h-1.8c-0.3,0-0.5,0.3-0.5,0.6s0.2,0.5,0.5,0.5h1.8c0.3,0,0.5-0.3,0.5-0.6
					C26.9,14.3,26.7,14.1,26.5,14z"/>
				<path id="Pfad_992" class="st0" d="M33.4,22.8h-1.8c-0.3,0-0.5,0.3-0.5,0.6c0,0.3,0.2,0.5,0.5,0.5h1.8c0.3,0,0.5-0.3,0.5-0.6
					C33.9,23.1,33.6,22.9,33.4,22.8z"/>
				<path id="Pfad_993" class="st0" d="M12.6,10.8h-1.8c-0.3,0-0.6,0.2-0.6,0.6s0.2,0.6,0.6,0.6l0,0h1.8c0.3,0,0.6-0.2,0.6-0.6
					S12.9,10.8,12.6,10.8L12.6,10.8z"/>
				<path id="Pfad_994" class="st0" d="M32.4,8.7h-1.8c-0.3,0-0.6,0.2-0.6,0.5s0.2,0.6,0.5,0.6h0.1h1.8c0.3,0,0.6-0.2,0.6-0.5
					C33.1,8.9,32.8,8.7,32.4,8.7C32.5,8.6,32.5,8.6,32.4,8.7z"/>
				<path id="Pfad_995" class="st0" d="M2.4,20.1H0.6c-0.3,0-0.6,0.2-0.6,0.5s0.2,0.6,0.5,0.6l0,0h1.8c0.3,0,0.6-0.2,0.6-0.5
					S2.7,20.1,2.4,20.1L2.4,20.1z"/>
				<path id="Pfad_996" class="st0" d="M68.2,22.5h-5.4c-0.3,0-0.6,0.2-0.6,0.5s0.2,0.6,0.5,0.6h0.1h5.4c0.3,0,0.5-0.3,0.5-0.6
					C68.7,22.8,68.5,22.6,68.2,22.5z"/>
				<path id="Pfad_997" class="st0" d="M62.2,16.9h-5.4c-0.3,0-0.5,0.3-0.5,0.6c0,0.3,0.2,0.5,0.5,0.5h5.4c0.3,0,0.5-0.3,0.5-0.6
					C62.7,17.1,62.5,16.9,62.2,16.9z"/>
				<path id="Pfad_998" class="st0" d="M56.2,22.5h-5.4c-0.3,0-0.5,0.3-0.5,0.6c0,0.3,0.2,0.5,0.5,0.5h5.4c0.3,0,0.6-0.2,0.6-0.5
					C56.8,22.8,56.6,22.6,56.2,22.5C56.3,22.5,56.2,22.5,56.2,22.5z"/>
				<path id="Pfad_999" class="st0" d="M17.2,23.6h-3.7c-0.3,0-0.5,0.3-0.5,0.6c0,0.3,0.2,0.5,0.5,0.5h3.7c0.3,0,0.6-0.2,0.6-0.5
					C17.8,23.9,17.6,23.7,17.2,23.6L17.2,23.6z"/>
			</g>
		</g>
	</g>
	<g id="Gruppe_303" transform="translate(1480.191 1479.651)">
		<path id="Pfad_1000" class="st0" d="M11.5,5H7.9C7.6,5,7.3,5.3,7.4,5.6c0,0.3,0.2,0.5,0.5,0.5h3.7c0.3,0,0.6-0.2,0.6-0.5
			C12.2,5.3,11.9,5,11.5,5C11.6,5,11.6,5,11.5,5z"/>
		<path id="Pfad_1001" class="st0" d="M5.5,0.6v3.7c0,0.3,0.3,0.5,0.6,0.5c0.3,0,0.5-0.2,0.5-0.5V0.6C6.6,0.3,6.4,0,6.1,0
			C5.7-0.1,5.5,0.2,5.5,0.6C5.5,0.5,5.5,0.5,5.5,0.6z"/>
		<path id="Pfad_1002" class="st0" d="M0.6,6.3h3.7c0.3,0,0.5-0.3,0.5-0.6c0-0.3-0.2-0.5-0.5-0.5H0.6C0.2,5.2,0,5.4,0,5.7
			C-0.1,6,0.2,6.3,0.6,6.3C0.5,6.3,0.5,6.3,0.6,6.3z"/>
		<path id="Pfad_1003" class="st0" d="M6.6,10.7V7.1c0-0.3-0.3-0.5-0.6-0.5c-0.3,0-0.5,0.2-0.5,0.5v3.7c0,0.3,0.2,0.6,0.5,0.6
			C6.3,11.4,6.6,11.1,6.6,10.7C6.6,10.8,6.6,10.8,6.6,10.7z"/>
	</g>
	<path id="Pfad_1004" class="st0" d="M1534.7,1513.6c-1.4,0.7-3.1,0.1-3.8-1.3c-0.7-1.4-0.1-3.1,1.3-3.8c1.4-0.7,3.1-0.1,3.8,1.3
		c0.3,0.7,0.4,1.5,0.1,2.2c-0.1,0.2,0,0.4,0.1,0.5l0,0c0.1,0.1,0.4,0.1,0.5,0c0,0,0-0.1,0.1-0.1c0.8-1.8-0.1-3.9-2-4.7
		c-1.8-0.8-3.9,0.1-4.7,2s0.1,3.9,2,4.7c1,0.4,2.1,0.4,3.1-0.2c0.2-0.1,0.2-0.3,0.1-0.5c0,0,0-0.1-0.1-0.1l0,0
		C1535.1,1513.5,1534.9,1513.5,1534.7,1513.6z"/>
</g>
</svg>
