<?xml version="1.0" encoding="utf-8"?>
<!-- Generator: Adobe Illustrator 25.2.1, SVG Export Plug-In . SVG Version: 6.00 Build 0)  -->
<svg version="1.1" id="Ebene_1" xmlns="http://www.w3.org/2000/svg" xmlns:xlink="http://www.w3.org/1999/xlink" x="0px" y="0px"
	 width="110.5px" height="132.1px" viewBox="0 0 110.5 132.1" style="enable-background:new 0 0 110.5 132.1;" xml:space="preserve"
	>
<style type="text/css">
	.st0{fill:#FFFFFF;}
</style>
<g id="Gruppe_21" transform="translate(-161.732 -258.952)">
	<g id="Gruppe_20" transform="translate(161.732 258.952)">
		<path id="Pfad_26" class="st0" d="M80.3,97.2c1.2,3-0.3,6.4-3.3,7.6s-6.4-0.3-7.6-3.3c-0.5-1.2-0.5-2.6-0.2-3.9
			c0.1-0.4,0.6-0.6,1-0.5l0,0l0,0c0.4,0.1,0.6,0.6,0.5,1c-0.7,2.3,0.6,4.7,2.9,5.4c2.3,0.7,4.7-0.6,5.4-2.9c0.7-2.3-0.6-4.7-2.9-5.4
			c-1.3-0.4-2.8-0.1-3.9,0.7c-0.3,0.3-0.8,0.2-1.1-0.2c-0.2-0.3-0.2-0.8,0.1-1.1c2.5-2,6.2-1.6,8.2,1C79.8,96.2,80.1,96.7,80.3,97.2
			L80.3,97.2z M80.9,109.2c0,0.1,0,0.2,0,0.4c0,0.5,0,1,0.2,1.5s0.4,0.9,0.8,1.3c0.3,0.4,0.7,0.7,1.1,0.9c0.3,0.2,0.5,0.4,0.6,0.7
			c0.1,0.3,0,0.6-0.1,0.9c-0.2,0.4-0.6,0.6-1,0.6c-0.1,0-0.1,0-0.2,0c-0.9-0.1-1.7-0.4-2.4-0.9c-0.8-0.5-1.5-1.1-2-1.8
			c-0.5-0.6-0.9-1.3-1.2-2.1c-1.5,0.2-3,0.2-4.4-0.2c-0.1,0.1-0.2,0.2-0.3,0.3c-0.4,0.3-0.7,0.7-0.9,1.2c-0.2,0.5-0.4,1-0.4,1.5
			s0,1,0.1,1.5c0.1,0.3,0.1,0.7-0.1,0.9c-0.1,0.3-0.4,0.5-0.7,0.5c-0.1,0-0.2,0-0.3,0c-0.4,0-0.7-0.2-0.9-0.5
			c-0.5-0.7-0.9-1.5-1.1-2.3c-0.2-0.9-0.3-1.8-0.2-2.7c0.1-0.8,0.3-1.6,0.7-2.3c-1.2-0.9-2.2-2-3-3.2c-0.1,0-0.3,0-0.4,0
			c-0.5,0-1,0-1.5,0.2s-0.9,0.4-1.3,0.8c-0.4,0.3-0.7,0.7-0.9,1.1c-0.2,0.3-0.4,0.5-0.7,0.6s-0.6,0-0.9-0.1
			c-0.4-0.2-0.6-0.7-0.6-1.2c0.1-0.9,0.4-1.7,0.9-2.4c0.5-0.8,1.1-1.5,1.8-2c0.6-0.5,1.3-0.9,2.1-1.2c-0.2-1.5-0.2-3,0.2-4.4
			c-0.1-0.1-0.2-0.2-0.3-0.3c-0.3-0.4-0.7-0.7-1.2-0.9c-0.5-0.2-1-0.4-1.5-0.4s-1,0-1.5,0.1c-0.3,0.1-0.7,0.1-0.9-0.1
			c-0.3-0.1-0.5-0.4-0.5-0.7c-0.1-0.5,0-1,0.4-1.2c0.7-0.5,1.5-0.9,2.3-1.1c0.9-0.2,1.8-0.3,2.7-0.2c0.8,0.1,1.6,0.3,2.3,0.7
			c0.9-1.2,2-2.2,3.2-3c0-0.1,0-0.3,0-0.4c0-0.5,0-1-0.2-1.5s-0.4-0.9-0.8-1.3c-0.3-0.4-0.7-0.7-1.1-0.9c-0.3-0.2-0.5-0.4-0.6-0.7
			c-0.2-0.6,0.2-1.2,0.8-1.4c0.2,0,0.3-0.1,0.5,0c0.9,0.1,1.7,0.4,2.4,0.9c0.8,0.5,1.5,1.1,2,1.8c0.5,0.6,0.9,1.3,1.2,2.1
			c1.5-0.2,3-0.2,4.4,0.2c0.1-0.1,0.2-0.2,0.3-0.3c0.4-0.3,0.7-0.7,0.9-1.2c0.2-0.5,0.4-1,0.4-1.5s0-1-0.1-1.5
			c-0.2-0.6,0.1-1.3,0.8-1.5l0,0c0.5-0.1,1,0,1.2,0.4c0.5,0.7,0.9,1.5,1.1,2.3c0.2,0.9,0.3,1.8,0.2,2.7c-0.1,0.8-0.3,1.6-0.7,2.3
			c1.2,0.9,2.2,2,3,3.2c0.1,0,0.3,0,0.4,0c0.5,0,1,0,1.5-0.2s0.9-0.4,1.3-0.8c0.4-0.3,0.7-0.7,0.9-1.1c0.2-0.3,0.4-0.5,0.7-0.6
			c0.3-0.1,0.6,0,0.9,0.1c0.4,0.2,0.6,0.7,0.6,1.2c-0.1,0.9-0.4,1.7-0.9,2.4c-0.5,0.8-1.1,1.5-1.8,2c-0.6,0.5-1.3,0.9-2.1,1.2
			c0.2,1.5,0.2,3-0.2,4.4c0.1,0.1,0.2,0.2,0.3,0.3c0.3,0.4,0.7,0.7,1.2,0.9c0.5,0.2,1,0.4,1.5,0.4s1,0,1.5-0.1
			c0.6-0.2,1.3,0.1,1.5,0.8l0,0c0.1,0.5,0,1-0.4,1.2c-0.7,0.5-1.5,0.9-2.3,1.1c-0.6,0.2-1.2,0.2-1.9,0.2c-0.3,0-0.6,0-0.8-0.1
			c-0.8-0.1-1.6-0.3-2.3-0.7C83.2,107.3,82.1,108.4,80.9,109.2L80.9,109.2z M85.5,94.9c0.2,0.4,0.3,0.7,0.4,1.1
			c0.5-0.2,0.9-0.5,1.4-0.8c0.5-0.4,0.9-0.8,1.2-1.4c-0.5,0.4-1,0.7-1.6,0.9C86.5,94.8,86,94.9,85.5,94.9L85.5,94.9z M69.3,85.7
			c0.4,0.5,0.7,1,0.9,1.6c0.1,0.5,0.2,0.9,0.2,1.4c0.4-0.2,0.7-0.3,1.1-0.4c-0.2-0.5-0.5-0.9-0.8-1.4C70.3,86.4,69.9,86,69.3,85.7
			L69.3,85.7z M64.2,103.8c-0.2-0.4-0.3-0.7-0.4-1.1c-0.5,0.2-0.9,0.5-1.4,0.8c-0.5,0.4-0.9,0.8-1.2,1.4c0.5-0.4,1-0.7,1.6-0.9
			C63.2,103.9,63.7,103.8,64.2,103.8L64.2,103.8z M85.5,103.8c-0.1,0.4-0.3,0.7-0.5,1.1c0.5,0.2,1,0.3,1.5,0.4
			c0.6,0.1,1.2,0,1.8-0.1c-0.6-0.1-1.2-0.3-1.8-0.6C86.3,104.4,85.9,104.1,85.5,103.8L85.5,103.8z M79.3,88.7
			c0.4,0.1,0.7,0.3,1.1,0.5c0.2-0.5,0.3-1,0.4-1.5c0.1-0.6,0-1.2-0.1-1.8c-0.1,0.6-0.3,1.2-0.6,1.8C79.9,88,79.6,88.3,79.3,88.7
			L79.3,88.7z M64.2,95c0.1-0.4,0.3-0.7,0.5-1.1c-0.5-0.2-1-0.3-1.6-0.4s-1.2,0-1.8,0.1c0.6,0.1,1.2,0.3,1.8,0.6
			C63.4,94.4,63.8,94.6,64.2,95L64.2,95z M70.4,110.1c-0.4-0.1-0.7-0.3-1.1-0.5c-0.2,0.5-0.3,1-0.4,1.5c-0.1,0.6,0,1.2,0.1,1.8
			c0.1-0.6,0.3-1.2,0.6-1.8C69.9,110.8,70.1,110.4,70.4,110.1L70.4,110.1z M84,103.3c2.2-5-0.1-10.9-5.2-13c-5-2.2-10.9,0.1-13,5.2
			c-2.2,5,0.1,10.9,5.2,13l0,0l0,0C76,110.6,81.8,108.3,84,103.3L84,103.3z M80.4,113.1c-0.4-0.5-0.7-1-0.9-1.6
			c-0.1-0.5-0.2-0.9-0.2-1.4c-0.4,0.2-0.7,0.3-1.1,0.4c0.2,0.5,0.5,0.9,0.8,1.4C79.4,112.3,79.9,112.7,80.4,113.1z M47.9,76
			L17.1,30.5c-0.2-0.4-0.1-0.8,0.2-1.1c0.4-0.2,0.8-0.1,1.1,0.2l0,0L46,70.4l4.1-2.7L15.2,16.2l-4.1,2.7l4,5.9
			c0.2,0.4,0.1,0.8-0.2,1.1c-0.4,0.2-0.8,0.1-1.1-0.2l0,0l-4.4-6.4c-0.1,0-0.1-0.1-0.1-0.1c0-0.1-0.1-0.1-0.1-0.2l-2-2.9L7.1,16
			c0-0.1-0.1-0.1-0.1-0.2L0.7,6.3c-1.3-1.8-0.8-4.3,1-5.6s4.3-0.8,5.6,1c0,0,0,0.1,0.1,0.1l0,0l44.4,65.6c0,0,0,0,0.1,0.1v0.1
			l2.6,3.8l1.4-1c1.4-1,3.4-0.7,4.4,0.8l0,0l0,0l3.6,5.1c0.1,0.2,0.2,0.3,0.3,0.5c2.2-0.8,4.6-1.4,7-1.7c2.1-0.2,4.2-0.3,6.2-0.2
			c0.4,0,0.7,0.1,1,0.1c0.7,0.1,1.4,0.1,2.1,0.3l1.5,0.2l1.5,0.3c3.9,0.9,7.7,2.3,11.2,4.1c0.7,0.4,1,1.3,0.7,2s-1.1,1-1.8,0.7
			c-3.5-1.3-7.1-2.2-10.8-2.7l-1.4-0.2L80,79.8c-0.6,0-1.2,0-1.8,0c-0.3,0-0.6,0-1,0c-1.8,0.1-3.5,0.3-5.2,0.7
			c-3.3,0.8-6.5,2.3-9.2,4.3c-1.3,1-2.6,2.2-3.7,3.5c-0.5,0.6-1.1,1.3-1.5,2c-0.2,0.3-0.5,0.7-0.7,1c-0.1,0.2-0.2,0.3-0.3,0.5
			c-0.1,0.1-0.2,0.3-0.2,0.3c-0.7,2.1-3,3.2-5.1,2.5s-3.2-3-2.5-5.1v-0.1c0.1-0.2,0.2-0.5,0.3-0.7l0.2-0.3c0.2-0.3,0.4-0.5,0.5-0.8
			l0.1-0.1l-4.2-6.1C44.7,80,45,78,46.5,77l0,0L47.9,76z M59.9,80.6c-2.7,1.6-5.1,3.6-7.1,5.9c-0.3,0.4-0.7,0.8-1,1.2
			c-0.2,0.2-0.3,0.4-0.5,0.6c-0.2,0.3-0.3,0.4-0.5,0.7l-0.2,0.3c-0.1,0.1-0.2,0.3-0.2,0.4c-0.4,1.3,0.2,2.7,1.5,3.1s2.7-0.2,3.1-1.5
			c0.1-0.2,0.2-0.4,0.3-0.6s0.2-0.4,0.3-0.6c0.2-0.4,0.5-0.7,0.7-1.1c0.5-0.7,1.1-1.4,1.6-2.1c1.2-1.4,2.5-2.6,3.9-3.7
			c2.9-2.2,6.3-3.8,9.8-4.6c1.8-0.4,3.7-0.7,5.5-0.7c0.3,0,0.7,0,1,0c0.6,0,1.3,0,1.9,0l1.4,0.1l1.4,0.2c3.8,0.5,7.5,1.4,11.1,2.8
			c-3.5-1.7-7.2-3-10.9-3.9L81.7,77l-1.4-0.2c-0.7-0.1-1.3-0.2-2-0.2c-0.3,0-0.7-0.1-1-0.1c-0.7,0-1.4-0.1-2.1-0.1
			c-1.3,0-2.6,0.1-3.9,0.2C67.3,77.1,63.4,78.5,59.9,80.6L59.9,80.6z M55,73c-0.1,0.1-0.1,0.2-0.2,0.2c-0.1,0-0.1,0-0.2,0.1l-7.1,5
			c-0.7,0.5-0.9,1.5-0.4,2.2l0,0l4,5.7c0.2-0.2,0.4-0.5,0.6-0.7c0.7-0.8,1.5-1.6,2.3-2.3c1.6-1.5,3.3-2.8,5.2-3.9
			c1.2-0.7,2.4-1.3,3.6-1.8c0-0.1-0.1-0.2-0.1-0.2L59,72.1c-0.5-0.7-1.5-0.9-2.3-0.4l0,0L55,73z M2,5.4l6.1,9l4.1-2.7l-6.1-9
			C5.3,1.5,3.8,1.2,2.7,2C1.6,2.7,1.2,4.2,2,5.4L2,5.4L2,5.4L2,5.4z M14.4,14.9L13.1,13L9,15.7l1.3,1.9L14.4,14.9z M49.2,75.1l4-2.8
			L51,69l-4.1,2.7L49.2,75.1z M52.5,65.3L39.7,46.6c-1.1-1.7-0.7-3.9,0.9-5.1l0,0c0.1-0.1,0.2-0.1,0.3-0.2l7.8-4.1
			c4.9-2.6,10.9-0.7,13.5,4.1l0,0c0.1,0.2,0.2,0.4,0.3,0.7l10.6,24.2c0.7,1.6,0.4,3.4-0.9,4.7c-1.5,1.4-3.5,2.1-5.5,2
			c-0.2,0-0.3,0-0.5,0c-1.1,0-2.2-0.6-2.8-1.6c-1.7-2.7-4.6-4.3-7.8-4.3C54.4,67,53.2,66.4,52.5,65.3L52.5,65.3z M41,45.8l12.8,18.7
			c0.4,0.6,1.1,1,1.9,1h0.1c3.6,0.1,7,1.9,8.9,5c0.4,0.5,1,0.9,1.6,0.9c1.8,0.2,3.5-0.4,4.9-1.5c0.8-0.8,1-1.9,0.5-2.9L61.2,42.7
			c-1.9-4.2-6.8-6.2-11.1-4.3c-0.2,0.1-0.4,0.2-0.6,0.3l-7.8,4.1c-1,0.5-1.4,1.8-0.9,2.8l0,0C40.9,45.6,41,45.7,41,45.8L41,45.8z
			 M43.5,44.2c-0.3-0.3-0.7-0.4-1.1-0.2c-0.3,0.3-0.4,0.7-0.2,1.1l0,0l4,5.4c0.3,0.3,0.7,0.4,1.1,0.2s0.4-0.7,0.2-1.1l0,0L43.5,44.2
			z M47.6,41.5c-0.2-0.4-0.7-0.6-1-0.4c-0.4,0.2-0.6,0.7-0.4,1c0,0,0,0,0,0.1l0,0l3.2,6c0.1,0.3,0.4,0.4,0.7,0.4
			c0.1,0,0.3,0,0.4-0.1c0.4-0.2,0.5-0.7,0.3-1.1l0,0L47.6,41.5z M54.2,45.8L52,39.9c-0.1-0.4-0.6-0.6-1-0.5s-0.6,0.6-0.5,1l2.2,5.9
			c0.1,0.4,0.6,0.6,1,0.5C54.1,46.7,54.3,46.2,54.2,45.8L54.2,45.8L54.2,45.8L54.2,45.8z M56,44.5c0.1,0.3,0.4,0.6,0.7,0.6
			c0.1,0,0.1,0,0.2,0c0.4-0.1,0.6-0.6,0.5-1l-1.3-4.6c-0.1-0.4-0.6-0.7-1-0.5s-0.7,0.6-0.5,1L56,44.5z M90.6,121.6
			c0,0.4,0.3,0.8,0.8,0.8l0,0h15.1c0.4,0,0.8-0.3,0.8-0.8c0-0.4-0.3-0.8-0.8-0.8H91.4C90.9,120.8,90.6,121.2,90.6,121.6L90.6,121.6
			L90.6,121.6z M88.3,121.6c0-0.4-0.3-0.8-0.8-0.8l0,0H72.6c-0.1,0-0.1,0-0.2,0c0,0-0.1,0-0.1,0.1c0,0-0.1,0-0.1,0.1l-0.1,0.1
			l-0.1,0.1c0,0,0,0.1-0.1,0.1c0,0.1-2,9-2,9c-0.1,0.2-0.5,0.2-0.5-0.1v-8.7c0-0.4-0.3-0.8-0.8-0.8l0,0h-8.3c-0.1,0-0.1,0-0.2,0
			c-0.1,0-0.3,0.1-0.4,0.2l-0.1,0.1c0,0,0,0.1-0.1,0.1c0,0.1-1.9,9-1.9,9c0,0.1-0.2,0.2-0.3,0.2l0,0c-0.1,0-0.2-0.1-0.2-0.2v-8.7
			c0-0.4-0.3-0.8-0.8-0.8l0,0H48c-0.1,0-0.2,0-0.2,0s-0.1,0-0.1,0.1l-0.1,0.1c-0.1,0.1-0.1,0.1-0.2,0.2c0,0,0,0.1-0.1,0.1
			c0,0.1-2,9-2,9c0,0.1-0.2,0.2-0.3,0.2s-0.2-0.1-0.2-0.2v-8.7c0-0.4-0.3-0.8-0.8-0.8l0,0H32c-0.4,0-0.8,0.3-0.8,0.8
			c0,0.4,0.3,0.8,0.8,0.8h11.4v7.9c0,1,0.8,1.8,1.8,1.8c0.9,0,1.6-0.6,1.8-1.4l1.8-8.3h6.8v7.9c0,1,0.8,1.8,1.8,1.8
			c0.9,0,1.6-0.6,1.8-1.4l1.8-8.3h6.9v7.9c0,1,0.8,1.8,1.8,1.8c0.9,0,1.6-0.6,1.8-1.4l1.8-8.3h14.2
			C87.9,122.4,88.3,122.1,88.3,121.6L88.3,121.6L88.3,121.6z M82.5,125c0,0.4,0.3,0.8,0.8,0.8h26.4c0.4,0,0.8-0.3,0.8-0.8
			c0-0.4-0.3-0.8-0.8-0.8H83.3C82.9,124.2,82.5,124.6,82.5,125L82.5,125z M75.3,124.2c-0.4,0-0.8,0.3-0.8,0.8c0,0.4,0.3,0.8,0.8,0.8
			h4.5c0.4,0,0.8-0.3,0.8-0.8c0-0.4-0.3-0.8-0.8-0.8H75.3z M26.6,125.8h14.2c0.4,0,0.8-0.3,0.8-0.8c0-0.4-0.3-0.8-0.8-0.8H26.7
			c-0.4,0-0.8,0.3-0.8,0.8C25.9,125.4,26.2,125.8,26.6,125.8L26.6,125.8z M25.4,88.2c0-0.4-0.3-0.8-0.8-0.8s-0.8,0.3-0.8,0.8V95
			c0,0.4,0.3,0.8,0.8,0.8s0.8-0.3,0.8-0.8V88.2z M24.6,98.9c-0.4,0-0.8,0.3-0.8,0.8l0,0v6.9c0,0.4,0.3,0.8,0.8,0.8s0.8-0.3,0.8-0.8
			v-6.9C25.4,99.2,25,98.9,24.6,98.9L24.6,98.9z M26.9,96.5c-0.4,0-0.8,0.3-0.8,0.8c0,0.4,0.3,0.8,0.8,0.8h6.9
			c0.4,0,0.8-0.3,0.8-0.8c0-0.4-0.3-0.8-0.8-0.8H26.9z M15.4,96.5c-0.4,0-0.8,0.3-0.8,0.8c0,0.4,0.3,0.8,0.8,0.8h6.9
			c0.4,0,0.8-0.3,0.8-0.8c0-0.4-0.3-0.8-0.8-0.8H15.4z M82.9,52.2c-0.6,1.2-0.7,2.6-0.3,3.9c0.1,0.4,0.6,0.6,1,0.5s0.6-0.6,0.5-1
			c-0.6-1.9,0.4-3.9,2.3-4.5s3.9,0.4,4.5,2.3c0.6,1.9-0.4,3.9-2.3,4.5c-0.9,0.3-1.9,0.2-2.8-0.3c-0.4-0.2-0.9,0-1.1,0.3
			c-0.2,0.4-0.1,0.8,0.3,1l0,0c2.5,1.4,5.6,0.4,7-2c1.4-2.5,0.4-5.6-2-7c-2.5-1.4-5.6-0.4-7,2C83,52.1,83,52.2,82.9,52.2L82.9,52.2z
			 M24.7,6.3C24.4,6,23.9,6,23.6,6.2c-2.1,1.8-2.4,5.1-0.5,7.2c0.9,1.1,2.2,1.7,3.6,1.8c0.1,0,0.2,0,0.3,0c2.8,0,5.1-2.3,5.1-5.1
			c0-2.7-2.2-5-4.9-5.1c-0.4,0-0.8,0.3-0.8,0.8c0,0.4,0.3,0.7,0.7,0.8c2,0.1,3.5,1.8,3.4,3.7c-0.1,2-1.8,3.5-3.7,3.4
			c-2-0.1-3.5-1.8-3.4-3.7c0-1,0.5-1.9,1.2-2.5C24.9,7.1,24.9,6.7,24.7,6.3L24.7,6.3z"/>
	</g>
</g>
</svg>
