<?xml version="1.0" encoding="utf-8"?>
<!-- Generator: Adobe Illustrator 25.2.1, SVG Export Plug-In . SVG Version: 6.00 Build 0)  -->
<svg version="1.1" id="Ebene_1" xmlns="http://www.w3.org/2000/svg" xmlns:xlink="http://www.w3.org/1999/xlink" x="0px" y="0px"
	 width="77.1px" height="83.4px" viewBox="0 0 77.1 83.4" style="enable-background:new 0 0 77.1 83.4;" xml:space="preserve">
<style type="text/css">
	.st0{fill:#FFFFFF;}
</style>
<g id="Gruppe_15" transform="translate(-155.954 -268.402)">
	<g id="Gruppe_14" transform="translate(155.954 268.402)">
		<path id="Pfad_23" class="st0" d="M53.1,68.7c1.5,3,0.4,6.6-2.6,8.1s-6.6,0.4-8.1-2.6c-0.5-1-0.8-2.2-0.6-3.4
			c0-0.3,0.3-0.5,0.6-0.5s0.5,0.3,0.5,0.6l0,0l0,0c-0.3,2.7,1.7,5.2,4.4,5.5s5.2-1.7,5.5-4.4c0.3-2.7-1.7-5.2-4.4-5.5
			c-1.4-0.1-2.7,0.3-3.8,1.2c-0.2,0.2-0.5,0.2-0.7-0.1s-0.2-0.5,0.1-0.7l0,0c2.5-2.2,6.3-1.9,8.5,0.6C52.6,67.9,52.9,68.3,53.1,68.7
			L53.1,68.7z M75.6,45.9L72,49.1l-15.6,14c4.6,4.7,4.5,12.3-0.2,16.9s-12.3,4.5-16.9-0.2c-4.3-4.4-4.5-11.4-0.5-16.1L36.4,63
			c-6.5,3.5-11.9,5.2-16.2,5.2c-0.6,0-1.2,0-1.9-0.1c-1.2-0.1-2.3-0.5-3.4-1c-1.9-0.9-3.2-2.6-3.6-4.6c-0.4-2.1,0.1-4.6,1.5-7.5
			c-0.4-0.6-0.6-1.3-0.5-1.9l0.3-2c-2.1-0.8-3.9-2.4-4.9-4.4c-4.2-8.1,1.9-23,5.5-31.9c0.9-2.1,1.5-3.8,1.8-4.7
			c0.2-0.6,0.1-1.2-0.2-1.8c-0.2-0.2-0.4-0.5-0.6-0.7C14.1,7.5,14,7.4,14,7.3c-0.4,0.1-0.8,0.2-1.2,0.2H7.5c-2.1,0-3.7-1.7-3.7-3.7
			S5.4,0,7.5,0H13c2,0,3.7,1.6,3.7,3.7c0,0.2,0,0.5-0.1,0.7c0.6,0.5,1.1,1,1.6,1.7c1,1.5,1.2,3.3,0.7,4.9c-0.3,1.1-1,2.8-1.9,5
			l0,0.1c-3.1,7.7-9,22.1-5.6,28.6c0.5,0.9,1.2,1.7,2.1,2.2l3.4-21.6c0.2-1.5,1.6-2.5,3.1-2.2c0.1,0,0.3,0.1,0.4,0.1l54.9,17.6
			c1.4,0.5,2.2,2,1.7,3.4c-0.1,0.5-0.4,0.9-0.8,1.2L75.6,45.9L75.6,45.9z M17.9,25.5l-0.2,1l44.1,14.1c0.3,0.1,0.4,0.4,0.3,0.7
			c-0.1,0.3-0.4,0.4-0.7,0.3l0,0l-43.8-14l-0.5,3.1l54.4,17.4l2.7-2.4L65.6,43c-0.3-0.1-0.4-0.4-0.3-0.7s0.4-0.4,0.7-0.3l9.1,2.9
			l0.4-0.4c0.7-0.6,0.7-1.6,0.1-2.3c-0.2-0.2-0.4-0.4-0.7-0.5L20,24.2c-0.9-0.3-1.8,0.2-2.1,1.1l0,0C17.9,25.3,17.9,25.4,17.9,25.5
			L17.9,25.5z M13,6.4c1.5,0,2.7-1.2,2.7-2.7C15.6,2.2,14.5,1,13,1H7.5C6,1,4.8,2.2,4.8,3.7S6,6.4,7.5,6.4H13z M13,49.9l0.3-1.8
			c-1.2-0.6-2.2-1.6-2.8-2.8c-3.6-6.9,2.4-21.6,5.6-29.5l0.1-0.1c0.9-2.1,1.6-3.8,1.8-4.9c0.4-1.4,0.2-2.9-0.6-4.1
			c-0.3-0.4-0.7-0.8-1.1-1.2c-0.3,0.5-0.7,1-1.2,1.3c0.3,0.2,0.5,0.5,0.8,0.8c0.5,0.8,0.6,1.7,0.3,2.6c-0.3,0.9-0.9,2.6-1.8,4.8
			C10.9,23.8,5,38.4,8.9,46C9.7,47.8,11.2,49.1,13,49.9L13,49.9z M35,62.5l-2.4-0.8c-5,2.4-9.1,3.6-12.3,3.6c-1.4,0-2.7-0.3-4-0.9
			c-1.1-0.5-1.9-1.5-2.1-2.6c-0.3-1.5,0.1-3.3,1.2-5.6l-1.1-0.4c-0.2-0.1-0.4-0.2-0.6-0.3c-1.1,2-1.6,4.3-1.3,6.6
			c0.3,1.7,1.5,3.1,3,3.9c0.9,0.5,2,0.8,3,0.9C22.6,67.6,28.3,66,35,62.5L35,62.5z M16.5,56.6c-1,2.1-1.5,3.9-1.2,5.1
			c0.2,0.8,0.7,1.6,1.5,1.9c2.9,1.5,7.8,0.7,14.3-2.3L16.5,56.6z M51.1,61.1c-5.7-1.8-11.9,1.3-13.7,7.1c-1.8,5.7,1.3,11.9,7.1,13.7
			c5.7,1.8,11.9-1.3,13.7-7.1c0.9-2.8,0.6-5.8-0.7-8.3C56.2,63.9,53.9,61.9,51.1,61.1z M55.6,62.4l15-13.4L16.9,31.8l-3.4,21.4
			c-0.1,0.8,0.3,1.6,1.1,1.8l24.8,7.9C43.9,58.6,50.9,58.4,55.6,62.4L55.6,62.4z M57.4,20c0.3,0,0.5-0.2,0.5-0.5l0,0v-4.3
			c0-0.3-0.2-0.5-0.5-0.5s-0.5,0.2-0.5,0.5v4.3C56.9,19.7,57.1,20,57.4,20L57.4,20z M56.9,26.6c0,0.3,0.2,0.5,0.5,0.5
			s0.5-0.2,0.5-0.5v-4.3c0-0.3-0.2-0.5-0.5-0.5s-0.5,0.2-0.5,0.5V26.6z M63.2,21.4c0.3,0,0.5-0.2,0.5-0.5s-0.2-0.5-0.5-0.5h-4.3
			c-0.3,0-0.5,0.2-0.5,0.5s0.2,0.5,0.5,0.5H63.2z M56,21.4c0.3,0,0.5-0.2,0.5-0.5s-0.2-0.5-0.5-0.5h-4.3c-0.3,0-0.5,0.2-0.5,0.5
			s0.2,0.5,0.5,0.5l0,0H56z M7.7,72.4c1.4-1.9,1-4.6-0.9-6s-4.6-1-6,0.9c-0.2,0.2-0.1,0.6,0.1,0.7c0.2,0.2,0.6,0.1,0.7-0.1l0,0
			c1.1-1.4,3.1-1.8,4.6-0.7c1.4,1.1,1.8,3.1,0.7,4.6s-3.1,1.8-4.6,0.7C1.6,72,1.1,71.2,1,70.3c0-0.3-0.3-0.5-0.6-0.5
			s-0.5,0.3-0.5,0.6c0.3,2.4,2.5,4,4.8,3.7C6,74,7,73.3,7.7,72.4z M67.9,68c1.1-1.1,1.1-3,0-4.1s-3-1.1-4.1,0s-1.1,3,0,4.1
			c0.5,0.5,1.3,0.8,2,0.8h0.1c0.3,0,0.5-0.3,0.5-0.5l0,0c0-0.3-0.2-0.5-0.5-0.5l0,0l0,0c-1,0-1.9-0.8-1.9-1.8s0.8-1.9,1.8-1.9
			s1.9,0.8,1.9,1.8c0,0.5-0.2,1-0.5,1.3l0,0c-0.2,0.2-0.2,0.5,0,0.7C67.3,68.2,67.7,68.2,67.9,68L67.9,68L67.9,68z"/>
	</g>
</g>
</svg>
