<?xml version="1.0" encoding="utf-8"?>
<!-- Generator: Adobe Illustrator 25.2.1, SVG Export Plug-In . SVG Version: 6.00 Build 0)  -->
<svg version="1.1" id="Ebene_1" xmlns="http://www.w3.org/2000/svg" xmlns:xlink="http://www.w3.org/1999/xlink" x="0px" y="0px"
	 width="97.5px" height="79.6px" viewBox="0 0 97.5 79.6" style="enable-background:new 0 0 97.5 79.6;" xml:space="preserve">
<style type="text/css">
	.st0{fill:#FFFFFF;}
</style>
<g id="Gruppe_304" transform="translate(-1437.521 -1451.609)">
	<path id="Pfad_1019" class="st0" d="M1531,1459.3v-0.2c0-1.6-1.3-2.9-2.9-2.9h-20.6c-1.6,0-2.9,1.3-2.9,2.9c0,0.8,0.3,1.6,0.9,2.1
		l5.2,4.8c0.7,0.7,1.8,0.9,2.8,0.7l15.4-4.5C1530.2,1461.7,1531,1460.6,1531,1459.3z M1513.2,1465.7c-0.7,0.2-1.4,0-1.9-0.4
		l-5.2-4.8c-0.8-0.7-0.8-1.9-0.1-2.7c0.4-0.4,0.9-0.6,1.4-0.6h20.6c1.1,0,1.9,0.9,1.9,1.9v0.3c0,0.9-0.6,1.6-1.4,1.8L1513.2,1465.7z
		"/>
	<path id="Pfad_1020" class="st0" d="M1528.3,1484.5c1.5-0.1,2.7-1.4,2.7-2.9v-11.9c0-0.9-0.4-1.8-1.2-2.3c-0.7-0.5-1.7-0.7-2.5-0.5
		l-11.8,3.5c-1.2,0.4-2.1,1.5-2.1,2.8v9.2c0,1.6,1.3,2.9,2.9,2.9h2.5c0.1,0,0.1,0,0.2,0l0,0L1528.3,1484.5z M1518.9,1484.3h-2.5
		c-1.1,0-1.9-0.9-1.9-1.9v-9.2c0-0.9,0.6-1.6,1.4-1.9l11.8-3.5c0.7-0.2,1.4,0,1.9,0.5c0.4,0.4,0.6,0.9,0.6,1.4v11.9
		c0,1-0.8,1.8-1.8,1.9L1518.9,1484.3z"/>
	<path id="Pfad_1021" class="st0" d="M1494.9,1521.3h-9c-1,0-1.9,0.5-2.4,1.3l-2.7,4.1c-0.9,1.3-0.5,3.1,0.8,4
		c0.5,0.3,1,0.5,1.6,0.5h11.7c1.6,0,2.9-1.3,2.9-2.9v-4.1C1497.8,1522.6,1496.5,1521.3,1494.9,1521.3z M1496.9,1528.3
		c0,1.1-0.9,1.9-1.9,1.9h-11.7c-1.1,0-1.9-0.9-1.9-1.9c0-0.4,0.1-0.8,0.3-1.1l2.7-4.1c0.4-0.5,1-0.9,1.6-0.9h9
		c1.1,0,1.9,0.9,1.9,1.9V1528.3z"/>
	<path id="Pfad_1022" class="st0" d="M1470.6,1503c0.2,1.1,1.1,1.9,2.1,2.2l4.2,1c1.1,0.3,2.2-0.1,2.9-1l12.5-15.1
		c1-1.2,0.8-3.1-0.4-4.1c-0.1,0-0.1-0.1-0.2-0.1l-7.1-5c-0.5-0.3-1.1-0.5-1.7-0.5H1469c-1.6,0-2.9,1.3-2.9,2.9c0,0.2,0,0.4,0.1,0.6
		l0,0L1470.6,1503z M1467.6,1482.1c0.4-0.5,0.9-0.7,1.5-0.7h13.9c0.4,0,0.8,0.1,1.1,0.4l7.1,5c0.9,0.6,1.1,1.8,0.5,2.7l-0.1,0.1
		l-0.5,0.6l0,0l-12,14.5c-0.4,0.4-0.9,0.7-1.5,0.7c-0.2,0-0.3,0-0.5-0.1l-4.2-1c-0.7-0.2-1.3-0.7-1.4-1.5l-4.3-19
		C1467.1,1483.2,1467.2,1482.6,1467.6,1482.1L1467.6,1482.1z"/>
	<path id="Pfad_1023" class="st0" d="M1513.8,1496.3c0.3,0,0.5-0.2,0.6-0.5l0.8-2.7c0.4-1.5-0.5-3.1-2-3.6c-0.3-0.1-0.5-0.1-0.8-0.1
		h-12.8c-0.9,0-1.7,0.4-2.2,1.1l-14.6,17.7c-0.7,0.8-0.8,1.9-0.5,2.9l1.6,4.3c0.4,1.1,1.5,1.9,2.7,1.9h11.1c0.8,0,1.5-0.3,2-0.8
		l11.7-11.7c0.3-0.3,0.6-0.8,0.7-1.2l0.8-2.8c0.1-0.2-0.1-0.4-0.3-0.5h-0.1c-0.3,0-0.5,0.2-0.6,0.5l-0.7,2.6
		c-0.1,0.3-0.3,0.6-0.5,0.8l-11.7,11.7c-0.4,0.4-0.9,0.6-1.4,0.6h-11.1c-0.8,0-1.5-0.5-1.8-1.2l-1.6-4.3c-0.2-0.6-0.1-1.4,0.3-1.9
		l14.6-17.7c0.4-0.4,0.9-0.7,1.5-0.7h12.8c1.1,0,1.9,0.9,1.9,1.9c0,0.2,0,0.4-0.1,0.5l-0.8,2.9c-0.1,0.2,0.1,0.4,0.3,0.5
		C1513.8,1496.2,1513.8,1496.3,1513.8,1496.3L1513.8,1496.3z"/>
	<path id="Pfad_1024" class="st0" d="M1478.3,1522.9l1.8-2.7c0.5-0.8,0.6-1.7,0.3-2.6l-2-5.4c-0.3-0.9-1.1-1.6-2-1.8l-5.4-1.4
		c-0.2-0.1-0.5-0.1-0.7-0.1c-0.6,0-1.2,0.2-1.7,0.6l-11.4,8.6c-0.7,0.6-1.2,1.4-1.2,2.3v7.9c0,1.6,1.3,2.9,2.9,2.9h12.4
		c1,0,1.9-0.5,2.4-1.3l2.3-3.4c0.1-0.2,0.1-0.4-0.1-0.5c-0.1,0-0.1-0.1-0.2-0.1c-0.3,0-0.6,0.1-0.7,0.4l-2.1,3.1
		c-0.4,0.5-1,0.9-1.6,0.9h-12.4c-1.1,0-1.9-0.9-1.9-1.9v-7.9c0-0.6,0.3-1.2,0.8-1.5l11.4-8.6c0.5-0.3,1.1-0.5,1.6-0.3l5.4,1.4
		c0.6,0.2,1.1,0.6,1.3,1.2l2,5.4c0.2,0.6,0.1,1.2-0.2,1.7l-2,3c-0.1,0.2-0.1,0.4,0.1,0.6c0.1,0,0.1,0.1,0.2,0.1
		C1478,1523.3,1478.2,1523.1,1478.3,1522.9z"/>
	<path id="Pfad_1025" class="st0" d="M1472,1460l4.5,14.3c0.4,1.2,1.5,2,2.7,2h5.3c0.4,0,0.8,0.1,1.2,0.4l11.5,8.1
		c0.5,0.3,1.1,0.5,1.7,0.5h7.5c1.6,0,2.9-1.3,2.9-2.9v-10.7c0-0.8-0.3-1.6-0.9-2.1l-5.3-4.9c-0.1-0.1-0.2-0.1-0.3-0.1
		c-0.3,0-0.5,0.2-0.5,0.5c0,0.1,0.1,0.3,0.2,0.4l5.2,4.8c0.4,0.4,0.6,0.9,0.6,1.4v10.7c0,1.1-0.9,1.9-1.9,1.9h-7.5
		c-0.4,0-0.8-0.1-1.1-0.3l-11.5-8.1c-0.5-0.3-1.1-0.5-1.7-0.5h-5.3c-0.8,0-1.6-0.5-1.8-1.4l-4.5-14.3c-0.3-0.9,0.1-1.9,1-2.3
		c0.3-0.1,0.6-0.2,0.9-0.2h18c0.5,0,1,0.2,1.3,0.5l3.6,3.3c0.1,0,0.1,0.1,0.2,0.1c0.3,0,0.5-0.2,0.5-0.5c0-0.1-0.1-0.3-0.2-0.4
		l-3.5-3.2c-0.5-0.5-1.2-0.8-2-0.8h-18.1c-1.6,0-2.9,1.3-2.9,2.9C1471.8,1459.4,1471.9,1459.7,1472,1460L1472,1460z"/>
</g>
<g id="Gruppe_305" transform="translate(-773.526 -1304.607)">
	<path id="Pfad_927" class="st0" d="M779.3,1334v-3.8c0-0.3,0.2-0.5,0.5-0.5s0.5,0.2,0.5,0.5l0,0v3.8c0,0.3-0.2,0.5-0.5,0.5
		S779.3,1334.3,779.3,1334L779.3,1334z"/>
	<path id="Pfad_928" class="st0" d="M779.3,1337.9c0-0.3,0.2-0.5,0.5-0.5s0.5,0.2,0.5,0.5v3.8c0,0.3-0.2,0.5-0.5,0.5
		s-0.5-0.2-0.5-0.5l0,0V1337.9z"/>
	<path id="Pfad_929" class="st0" d="M781.7,1336.4c-0.3,0-0.5-0.2-0.5-0.5s0.2-0.5,0.5-0.5h3.8c0.3,0,0.5,0.2,0.5,0.5
		s-0.2,0.5-0.5,0.5l0,0H781.7z"/>
	<path id="Pfad_930" class="st0" d="M777.8,1336.4H774c-0.3,0-0.5-0.2-0.5-0.5s0.2-0.5,0.5-0.5l0,0h3.8c0.3,0,0.5,0.2,0.5,0.5
		C778.3,1336.2,778.1,1336.4,777.8,1336.4C777.9,1336.4,777.8,1336.4,777.8,1336.4z"/>
</g>
<g id="Gruppe_307" transform="translate(-688.526 -1275.607)">
	<path id="Pfad_927-2" class="st0" d="M779.3,1334v-3.8c0-0.3,0.2-0.5,0.5-0.5s0.5,0.2,0.5,0.5l0,0v3.8c0,0.3-0.2,0.5-0.5,0.5
		S779.3,1334.3,779.3,1334L779.3,1334z"/>
	<path id="Pfad_928-2" class="st0" d="M779.3,1337.9c0-0.3,0.2-0.5,0.5-0.5s0.5,0.2,0.5,0.5v3.8c0,0.3-0.2,0.5-0.5,0.5
		s-0.5-0.2-0.5-0.5l0,0V1337.9z"/>
	<path id="Pfad_929-2" class="st0" d="M781.7,1336.4c-0.3,0-0.5-0.2-0.5-0.5s0.2-0.5,0.5-0.5h3.8c0.3,0,0.5,0.2,0.5,0.5
		s-0.2,0.5-0.5,0.5l0,0H781.7z"/>
	<path id="Pfad_930-2" class="st0" d="M777.8,1336.4H774c-0.3,0-0.5-0.2-0.5-0.5s0.2-0.5,0.5-0.5l0,0h3.8c0.3,0,0.5,0.2,0.5,0.5
		C778.3,1336.2,778.1,1336.4,777.8,1336.4C777.9,1336.4,777.8,1336.4,777.8,1336.4z"/>
</g>
<path id="Pfad_1026" class="st0" d="M19.1,2.6c-0.6,1.2-0.2,2.7,1,3.3s2.7,0.2,3.3-1c0.6-1.2,0.2-2.7-1-3.3
	c-0.6-0.3-1.3-0.4-1.9-0.2c-0.4,0.1-0.7-0.1-0.9-0.4c-0.1-0.4,0.1-0.7,0.4-0.9l0,0c2-0.7,4.1,0.4,4.8,2.4s-0.4,4.1-2.4,4.8
	C20.5,8,18.3,7,17.7,5c-0.3-1-0.2-2.1,0.3-3c0.2-0.3,0.6-0.5,0.9-0.3S19.3,2.3,19.1,2.6L19.1,2.6L19.1,2.6z"/>
</svg>
