<?xml version="1.0" encoding="utf-8"?>
<!-- Generator: Adobe Illustrator 25.2.1, SVG Export Plug-In . SVG Version: 6.00 Build 0)  -->
<svg version="1.1" id="Ebene_1" xmlns="http://www.w3.org/2000/svg" xmlns:xlink="http://www.w3.org/1999/xlink" x="0px" y="0px"
	 width="29.3px" height="28.4px" viewBox="0 0 29.3 28.4" style="enable-background:new 0 0 29.3 28.4;" xml:space="preserve">
<style type="text/css">
	.st0{fill:#FFFFFF;}
</style>
<g id="Gruppe_24" transform="translate(-157 -284.89)">
	<path id="Pfad_28" class="st0" d="M157.3,312.1h28.8c0.1,0,0.2-0.1,0.2-0.2s-0.1-0.2-0.2-0.2h-4.6c-0.1-0.5-0.3-2.4,0.5-3.4
		c0.2-0.3,0.5-0.6,0.8-0.8c1.3,0,1.6,0.3,1.6,0.4s0.1,0.1,0.2,0.1s0.2-0.1,0.2-0.2c0.1-0.8-0.6-1.4-1-1.7c-0.5-0.5-1.3-0.7-2-0.6
		c-0.4,0.1-0.8,0.4-1.1,0.7c0-0.2,0.1-0.4,0.2-0.6c0.7-2,1.1-4,1.1-6.1c0-0.1-0.1-0.2-0.2-0.2l0,0l0,0c-0.1,0-0.2,0.1-0.2,0.2
		c-0.1,2-0.4,4.1-1.1,6c-0.1,0.4-0.2,0.7-0.3,1.1c0,0.1,0,0.1,0,0.2c-1.2,1.4-1.9,3.2-1.8,5.1H178c-0.2-0.6-1.4-3.2-1.2-4.9
		c0.1-0.9,0.3-1.8,0.6-2.7c0.2-0.7,0.4-1.4,0.6-2.1c0.3-0.6,0.7-1.4,1.2-2.5c0.9-2,1.4-4.2,1.4-6.5c0.6,1.7,1,3.4,1.1,5.2
		c0,0.1,0.1,0.2,0.2,0.2s0.2-0.1,0.2-0.2l0,0l0,0c-0.2-3.1-1.6-6.5-1.6-6.6s-0.1-0.1-0.3-0.1c-0.1,0-0.1,0.1-0.1,0.2
		c0.2,2.6-0.2,5.2-1.3,7.6c-0.3,0.6-0.5,1.1-0.8,1.5c0.1-2.5-0.4-3.8-0.4-3.9s-0.1-0.1-0.2-0.1c-0.1,0-0.2,0.1-0.2,0.1
		c-0.5,1.9-1.4,3.7-2.5,5.3c-0.1,0.1-0.2,0.3-0.4,0.5c-0.1,0.1-0.2,0.3-0.4,0.5c0-1.4,0.2-2.7,0.7-4c0.5-1.6,0.8-3.3,0.8-4.9
		c0-2.6-1.3-5.6-1.3-5.7s-0.1-0.1-0.3-0.1c-0.1,0-0.1,0.1-0.1,0.2s-0.4,4.7-1.9,7.3c-0.4,0.7-1,1.7-1.6,2.9c0-1.4-0.1-2.9-0.4-4.3
		c-0.9-4.4-4.9-8.8-5.8-9.2h-0.1h-0.1c-0.1,0-0.1,0.1-0.1,0.2v0.1c0,0,0,0,0,0.1c0.7,1.1,1.2,2.2,1.6,3.4c0,0.1,0.2,0.1,0.3,0.1
		s0.2-0.1,0.1-0.3c-0.3-0.9-0.7-1.7-1.1-2.5c1.5,1.4,4.2,4.9,4.8,8.3c0.3,1.7,0.4,3.4,0.3,5.1v0.1c-1,2.1-1.3,3.8-1.5,6.1
		c-0.1,1.9,0,3.9,0.4,5.8h-0.8c0-1.1-0.3-6.1-1.3-10.1v-0.1v-0.1v-0.1c0.3-2.3,0.7-4.4,0.6-6.2c-0.1-1.7-0.4-3.4-0.9-5
		c0-0.1-0.1-0.1-0.3-0.1c-0.1,0-0.1,0.1-0.1,0.2l0,0c0.5,1.6,0.8,3.2,0.9,4.9c0,1.8-0.2,3.7-0.5,5.5c-0.2-0.5-0.4-1.1-0.6-1.6
		c-1.9-4.5-5.1-6.1-5.2-6.2c-0.1-0.1-0.2,0-0.3,0.1c0,0.1,0,0.2,0,0.2c3.4,3.9,3,6.9,2.7,9.6c0,0.1,0,0.2,0,0.3
		c-1.2-1.3-2.3-1.3-3.3-1c-0.8,0.2-1.3,0.8-1.6,1.5c-0.5,1.7,0.7,3.8,1,4.3c0,0,0,0,0,0.1s0.1,0.1,0.1,0.1c0.1,0,0.2-0.1,0.2-0.2
		l0,0l0,0v-0.1c-0.3-1-0.1-2,0.5-2.8c0.4-0.5,1-0.8,1.6-1c0.8,2,1.6,6.2,1.4,7.8h-5.6c-0.1,0-0.2,0.1-0.2,0.2
		C157.1,312,157.1,312.1,157.3,312.1L157.3,312.1z M183.3,307.1c0.2-0.1,0.4-0.2,0.6-0.3c0.2,0.1,0.2,0.3,0.3,0.5
		C183.9,307.2,183.6,307.1,183.3,307.1L183.3,307.1z M181.8,305.8c0.7-0.1,1.3,0.1,1.8,0.6c-0.8,0.3-1.5,0.9-2,1.6
		c-0.9,1.1-0.7,3-0.6,3.7h-2.2C178.7,308.8,180.7,306.1,181.8,305.8L181.8,305.8z M174.7,303.1c0.2-0.2,0.3-0.4,0.4-0.5
		c1-1.5,1.8-3.1,2.3-4.8c0.2,1,0.3,2,0.2,3.1c0,0.4-0.1,0.7-0.1,1.1v0.1c-0.1,0.7-0.3,1.3-0.5,2c-0.3,0.9-0.5,1.8-0.6,2.8
		c-0.1,1.7,0.8,4.1,1.2,5H173C170.9,308,173.5,304.7,174.7,303.1L174.7,303.1z M168.7,306c0.2-2.2,0.5-3.9,1.5-5.9
		c0.7-1.5,1.5-2.9,2-3.8c1.2-2.1,1.7-5.2,1.9-6.7c0.6,1.5,0.9,3.1,1,4.8c0,1.6-0.3,3.3-0.8,4.9c-0.4,1.4-0.8,2.8-0.6,4.6
		c-1.3,1.8-2.8,4.6-1.1,7.9h-3.5C168.7,309.8,168.6,307.9,168.7,306L168.7,306z M161.4,293.9c1.8,1.4,3.2,3.2,4,5.3
		c0.3,0.8,0.6,1.6,0.8,2.5c1.1,4,1.3,9,1.3,10h-1c-0.1-0.8-1-4.7-2.6-7.3c-0.2-0.4-0.4-0.7-0.7-1c0-0.2,0.1-0.4,0.1-0.6
		C163.7,300.3,164.1,297.5,161.4,293.9L161.4,293.9z M159.6,304.6c-0.5,0.5-0.8,1.3-0.8,2c-0.4-0.9-0.7-2.1-0.4-3
		c0.2-0.4,0.5-0.8,0.8-1l0,0c0.3-0.2,0.7-0.2,1.1-0.1c0.4,0.2,0.7,0.4,0.8,0.8c0,0.1,0.1,0.1,0.1,0.2
		C160.7,303.7,160.1,304.1,159.6,304.6L159.6,304.6z M161.6,303.1c-0.2-0.4-0.4-0.7-0.8-0.9c0.8,0.1,1.7,0.7,2.8,2.3
		c1.6,2.5,2.3,6.1,2.6,7.1h-2.9C163.6,309.6,162.4,304.6,161.6,303.1L161.6,303.1z M184.9,313.3h-10c-0.1,0-0.2-0.1-0.2-0.2
		s0.1-0.2,0.2-0.2l0,0h10c0.1,0,0.2,0.1,0.2,0.2C185,313.2,185,313.3,184.9,313.3L184.9,313.3z M174.1,313.3h-13.2
		c-0.1,0-0.2-0.1-0.2-0.2s0.1-0.2,0.2-0.2h13.2c0.1,0,0.2,0.1,0.2,0.2C174.2,313.2,174.2,313.3,174.1,313.3z M160.3,313.1
		c0,0.1-0.1,0.2-0.2,0.2l0,0h-2c-0.1,0-0.2-0.1-0.2-0.2s0.1-0.2,0.2-0.2h2C160.2,312.9,160.3,313,160.3,313.1L160.3,313.1z
		 M179,286.3v-1.2c0-0.1,0.1-0.2,0.2-0.2c0.1,0,0.2,0.1,0.2,0.2v1.2c0,0.1-0.1,0.2-0.2,0.2S179,286.4,179,286.3L179,286.3z
		 M179,289.1v-1.2c0-0.1,0.1-0.2,0.2-0.2c0.1,0,0.2,0.1,0.2,0.2v1.2c0,0.1-0.1,0.2-0.2,0.2C179.1,289.3,179,289.2,179,289.1z
		 M179.9,287.1c0-0.1,0.1-0.2,0.2-0.2h1.2c0.1,0,0.2,0.1,0.2,0.2s-0.1,0.2-0.2,0.2h-1.2C179.9,287.3,179.9,287.2,179.9,287.1
		L179.9,287.1L179.9,287.1z M177.1,287.1c0-0.1,0.1-0.2,0.2-0.2h1.2c0.1,0,0.2,0.1,0.2,0.2s-0.1,0.2-0.2,0.2h-1.2
		C177.1,287.3,177.1,287.2,177.1,287.1L177.1,287.1L177.1,287.1z M157.8,299.6c-0.7-0.6-0.8-1.6-0.2-2.3c0.6-0.7,1.6-0.8,2.3-0.2
		l0,0l0,0c0.1,0.1,0.1,0.2,0,0.3s-0.2,0.1-0.3,0l0,0c-0.5-0.5-1.3-0.4-1.8,0.1s-0.4,1.3,0.1,1.8s1.3,0.4,1.8-0.1
		c0.2-0.2,0.4-0.6,0.3-0.9c0-0.1,0.1-0.2,0.2-0.2s0.2,0.1,0.2,0.2c0.1,0.9-0.6,1.7-1.5,1.7h-0.1C158.5,300,158.1,299.9,157.8,299.6
		L157.8,299.6z"/>
</g>
</svg>
