<?xml version="1.0" encoding="utf-8"?>
<!-- Generator: Adobe Illustrator 25.2.1, SVG Export Plug-In . SVG Version: 6.00 Build 0)  -->
<svg version="1.1" id="Ebene_1" xmlns="http://www.w3.org/2000/svg" xmlns:xlink="http://www.w3.org/1999/xlink" x="0px" y="0px"
	 width="102.2px" height="94.9px" viewBox="0 0 102.2 94.9" style="enable-background:new 0 0 102.2 94.9;" xml:space="preserve">
<style type="text/css">
	.st0{fill:#FFFFFF;}
</style>
<path id="Pfad_1029" class="st0" d="M101.4,93.4H85.2l-4-8.1h3.4c3,0,5.5-2.3,5.7-5.3c0.1-3.1-2.3-5.6-5.3-5.8c-0.1,0-0.1,0-0.2,0
	H67c-0.4,0-0.7,0.3-0.7,0.7c0,0.4,0.3,0.8,0.8,0.8l0,0h17.5c2.2,0,4,1.7,4.2,3.8c0.1,2.2-1.6,4.1-3.8,4.2c-0.1,0-0.1,0-0.2,0H39.4
	L13.1,65.6c-1.8-1.3-2.3-3.8-1.1-5.6c0.1-0.2,0.3-0.4,0.5-0.6l0.3-0.3c1.4-1.4,3.6-1.5,5.2-0.4l25.6,16.8c0.1,0.1,0.3,0.1,0.4,0.1
	h15.2c0.4,0,0.7-0.2,0.8-0.6s-0.1-0.8-0.5-0.9c-0.1,0-0.1,0-0.2,0h-15l-24-15.7l16.2-35.6l29.8,13.7c0.1,0,0.2,0.1,0.3,0.1
	c0.2,0,0.3-0.1,0.5-0.2c0.2-0.2,0.3-0.4,0.3-0.7l-0.1-1C64.4,12.9,44.5-2.4,22.8,0.3C16.8,1.1,11.1,3.2,6,6.6L5.1,7.1
	C4.9,7.3,4.8,7.6,4.8,7.8c0,0.3,0.2,0.5,0.4,0.6l29.9,13.7l-16,35.3l-1.4-0.5c-2-0.8-4.3-0.3-5.9,1.2l-0.2,0.3
	c-2.2,2.2-2.2,5.7,0,7.8c0.2,0.2,0.5,0.5,0.8,0.6l1.9,1.3L2.7,93.4H0.8c-0.4,0-0.7,0.3-0.8,0.7c0,0.4,0.3,0.8,0.7,0.8h0.1h11.8
	c0.4,0,0.8-0.3,0.8-0.8l0,0c0-0.4-0.3-0.8-0.8-0.8H4.3L15.5,69l23.2,16.1c0.1,0.1,0.3,0.1,0.4,0.1h3.6l-4,8.1H18.9
	c-0.4,0-0.7,0.3-0.8,0.7l0,0l0,0c0,0.4,0.3,0.7,0.7,0.8l0,0h82.6c0.4,0,0.8-0.3,0.8-0.8v-0.1C102.2,93.7,101.8,93.4,101.4,93.4z
	 M52.3,10.5c6.4,5.4,10.9,12.7,12.7,20.9l0.7,3.2l-11.6-5.3l0.1-1.1c0.3-4.1-1.3-9.5-4.5-15.6L46,5.4L52.3,10.5z M45.7,8.4
	c3.5,5.3,5.9,11.2,7,17.4l0.6,3.1l-16.4-7.5L44,5.9L45.7,8.4z M18.3,12.8L6.9,7.6L9.8,6c5.5-3,11.7-4.5,17.9-4.5l0,0
	c2.1,0,4.1,0.2,6.2,0.6l7.9,1.3L34,5.3C27.1,7,22.1,9.2,19.1,12.1L18.3,12.8z M19.2,13.2l2.8-1.6c5.5-3.2,11.5-5.2,17.8-6l3-0.4
	l-7.1,15.5L19.2,13.2z M40.3,93.4l4-8.1h35l4,8.1H40.3z"/>
</svg>
