<?xml version="1.0" encoding="utf-8"?>
<!-- Generator: Adobe Illustrator 25.2.1, SVG Export Plug-In . SVG Version: 6.00 Build 0)  -->
<svg version="1.1" id="Ebene_1" xmlns="http://www.w3.org/2000/svg" xmlns:xlink="http://www.w3.org/1999/xlink" x="0px" y="0px"
	 width="109px" height="99.5px" viewBox="0 0 109 99.5" style="enable-background:new 0 0 109 99.5;" xml:space="preserve">
<style type="text/css">
	.st0{fill:#FFFFFF;}
</style>
<g id="Gruppe_23" transform="translate(-145.509 -283.64)">
	<g id="Gruppe_22" transform="translate(145.509 283.64)">
		<path id="Pfad_27" class="st0" d="M54.5,0c-5.8,0-10.4,4.7-10.4,10.4s4.7,10.4,10.4,10.4c0.3,0,0.5,0,0.8,0
			c0.1,0.1,0.2,0.1,0.4,0.1c0.1,0,0.2,0,0.4-0.1c0.1,0,0.1-0.1,0.1-0.1c5.7-0.9,9.6-6.2,8.7-11.9C64.1,3.7,59.7,0,54.5,0L54.5,0z
			 M55.9,19.3c-0.9-1.4-0.8-3.3,0.3-4.6c0.3-0.3,0.2-0.7,0-1c-0.3-0.3-0.7-0.3-1,0c-1.3,1.6-1.6,3.8-0.7,5.7c-5,0-9-4-9-9s4-9,9-9
			s9,4,9,9C63.5,14.8,60.3,18.6,55.9,19.3L55.9,19.3z M3.7,84.9c0.9-3.1,1.8-6.4,2.7-10c0.8-3.1,1.5-6.5,2.3-10.2
			c0.3-1.6,0.7-3.2,1-4.9c0.1-0.4,0.4-0.6,0.8-0.5c0.2,0,0.4,0.2,0.5,0.4c1.4,3.1,4.2,5.1,8.5,5.8c0.4,0.1,0.7,0.3,0.9,0.6
			c0.2,0.3,0.2,0.7,0.1,1.1c-0.6,1.7-1.3,3.3-2,5c-0.2,0.3-0.6,0.5-0.9,0.4s-0.5-0.5-0.4-0.9c0.7-1.7,1.3-3.3,2-5
			c-3.4-0.3-6.5-2.1-8.6-4.8c-0.2,1-0.4,2-0.6,3.1c-0.8,3.7-1.6,7-2.3,10.2c-0.9,3.7-1.8,7-2.7,10.1c-0.7,2.7-1.6,5.3-2.7,7.9
			l-0.1,0.2c-0.9,2-1.4,3.5,0,4.4c0.4,0.3,0.9,0.4,1.4,0.3C4.7,97.7,5.5,97,6,96c3.4-5.9,6.4-12,8.9-18.4l0.5-1.3
			c0.2-0.3,0.6-0.5,0.9-0.4s0.5,0.5,0.4,0.9l-0.5,1.3c-2.5,6.4-5.5,12.6-9,18.6C6.5,98,5.4,99,4,99.4c-0.2,0.1-0.4,0.1-0.7,0.1
			c-0.7,0-1.3-0.2-1.8-0.6C-1,97.3,0.2,94.6,1,92.8v-0.1C2.1,90.1,3,87.6,3.7,84.9L3.7,84.9z M30.3,14.3c-1.1,0-2.2,0-3.3,0
			c-1.7,0-3.5,0-5.2,0.1h-0.3c-2.7,0.2-5.8,0.3-8,2.4c-2.9,3-5.5,6.3-7.6,10c-0.6,1-0.5,2.2,0.2,3.1c0.8,0.9,2.1,1.2,3.2,0.6
			l5.5,4.9c-2.9,6.2-4.1,13-3.4,19.8c0.4,5.2,5,9.1,10.2,8.8l0.1,0.1c0.6,0.3,1.2,0.7,1.8,1.1c2,1.2,4,2.6,5.9,4.1
			c0.7,0.5,1.4,1.1,2,1.7l1.2,1c0.6,0.6,1.3,1.2,1.8,1.9c3,3.6,4.2,7.4,4,13.1c0,1.4-0.1,2.9-0.3,4.3c-0.1,1.5-0.3,2.9-0.5,4.3
			c-0.3,1.9,1,3.7,2.9,4l0,0c1.9,0.3,3.6-0.9,4-2.7c0.4-1.4,0.7-2.8,1-4.5c0.3-1.5,0.6-3.1,0.8-4.6c0.7-3.6,0.8-7.2,0.4-10.9
			c-0.7-3.2-2-6.2-3.8-8.9c-0.7-1.1-1.4-2.1-2.2-3.1l-0.5-0.6c-2.4-2.8-5-5.4-7.8-7.8c-0.5-0.4-1-0.9-1.4-1.4
			c-0.9-1.4-0.7-3.9-0.5-5.5l8.2,7.2c0.1,0.1,0.1,0.3,0.2,0.4c0.2,0.3,0.4,0.7,0.5,1.1c0.6,1.5,1.5,2.8,2.7,3.9
			c0.8,0.6,2,0.7,2.9,0.3l23.9,21.1l-0.7,0.8l-2.7,3l-2,2.6c-0.1,0.1-0.2,0.3-0.2,0.5s0.1,0.4,0.2,0.5l5.1,4.5
			c0.3,0.3,0.8,0.3,1.1-0.1c0.1-0.1,0.2-0.3,0.2-0.5l0,0c0-0.2-0.1-0.4-0.2-0.5l-4.6-4l1.3-1.5l4.6,4c0.1,0.1,0.3,0.2,0.5,0.2
			c0.4,0,0.8-0.3,0.7-0.8l0,0c0-0.2-0.1-0.4-0.2-0.5l-4.6-4l1.7-1.9l4.6,4c0.1,0.1,0.3,0.2,0.5,0.2c0.4,0,0.8-0.3,0.7-0.8
			c0-0.2-0.1-0.4-0.2-0.6l-4.6-4l1.5-1.7l4.6,4c0.3,0.3,0.8,0.2,1.1-0.1c0.3-0.3,0.2-0.8-0.1-1.1l-4.6-4l1.7-1.9l4.6,4
			c0.3,0.3,0.8,0.2,1.1-0.1c0.3-0.3,0.2-0.8-0.1-1l-4.6-4l1.4-1.5l4.6,4c0.3,0.3,0.8,0.3,1.1-0.1c0.3-0.3,0.2-0.8-0.1-1.1l0,0l0,0
			L77,75.7c-0.2-0.1-0.4-0.2-0.6-0.2s-0.4,0.1-0.5,0.2l-2.3,2.7l-2.7,3l-0.8,0.9L46.3,61.2c0.3-1.2,0.2-2.4-0.3-3.5
			c-1.9-5.3-2.2-11.2-0.9-18.6c0.1-0.4-0.2-0.7-0.6-0.8c-0.4-0.1-0.7,0.2-0.8,0.6l0,0c-1.3,7.6-1,13.7,1,19.3c0.3,0.6,0.4,1.3,0.5,2
			c0,0.3-0.1,0.6-0.3,0.9c-0.2,0.2-0.4,0.3-0.7,0.2c-0.3,0-0.6-0.1-0.9-0.3c-0.6-0.5-1.1-1.1-1.5-1.8c-0.3-0.5-0.6-1.1-0.9-1.7
			c-0.2-0.4-0.4-0.8-0.6-1.1c-0.2-0.3-0.3-0.6-0.5-0.9c-0.7-1.4-1.3-2.9-1.7-4.4c-1.1-3.7-1.5-7.6-1.3-11.4c0-0.9,0.1-1.5,0.2-2.6
			c0-0.4-0.3-0.7-0.6-0.7l0,0c-0.3,0-0.5,0.1-0.7,0.4c-0.1,0.1-0.1,0.1-0.2,0.2c-0.1,0-0.1,0.1-0.2,0.2c-0.2,0.2-0.3,0.3-0.5,0.5
			c-0.3,0.4-0.7,0.7-1,1.1c-1.1,1.3-2,2.7-2.7,4.3c-0.6,1.2-1,2.4-1.3,3.7c-0.2,0.6-0.3,1.2-0.4,1.7C29,51,28.8,53.8,30,55.8
			c0.5,0.7,1.1,1.3,1.7,1.8c2.7,2.3,5.2,4.9,7.5,7.6l0.4,0.6c0.8,1,1.5,2,2.2,3c1.8,2.5,3,5.4,3.6,8.4c0.3,3.5,0.2,7-0.5,10.5
			c-0.2,1.5-0.5,3.1-0.8,4.6c-0.3,1.6-0.6,3-1,4.4c-0.3,1.1-1.3,1.9-2.5,1.7c-1.2-0.2-2-1.3-1.8-2.5l0,0c0.2-1.3,0.4-2.8,0.5-4.3
			c0.1-1.4,0.2-2.9,0.3-4.3c0.2-6-1-10.1-4.3-14c-0.6-0.7-1.2-1.4-1.9-2l-1.2-1.1c-0.7-0.6-1.4-1.2-2.1-1.7c-1.9-1.5-3.9-2.9-6-4.1
			c-0.6-0.4-1.2-0.7-1.9-1.1l-0.3-0.2C21.8,63,21.6,63,21.5,63c-4.5,0.4-8.5-3-8.9-7.5l0,0c-0.7-6.4,0.4-12.9,3.1-18.7
			c0.2-0.5,0.5-0.9,0.7-1.4c2-3.8,4.5-7.2,7.6-10.1c0.4-0.4,0.5-0.9,0.3-1.4s-0.6-0.8-1.2-0.9c-0.5,0-0.9-0.1-1.3-0.1
			c-1.4-0.1-2.8,0-4.2,0.1c-0.1,0-0.1,0-0.2,0.1c-0.4,0.2-0.9,0.5-1.3,0.7c-0.9,0.6-1.8,1.2-2.5,1.8c-1.3,1-2.7,2.1-4.4,3.5
			c0-0.3-0.2-0.1-0.4,0c-0.5,0.4-1.3,0.4-1.7-0.1l0,0c-0.4-0.4-0.4-1-0.1-1.4c2.1-3.5,4.6-6.8,7.4-9.7c1.8-1.8,4.5-1.9,7.1-2h0.4
			c1.7-0.1,3.4-0.1,5.1-0.1c1.1,0,2.2,0,3.4,0c3.5-0.3,7.1,0,10.5,1c3.1,0.8,5.4,3.4,5.8,6.5c0.2,1.6,0.1,3.3-0.4,4.9
			c-0.7,2.5-1.2,4.5-1.6,6.3c-0.1,0.4,0.1,0.7,0.5,0.8l0,0l0,0c0.4,0.1,0.7-0.1,0.8-0.5l0,0l0,0c0.4-1.8,0.9-3.7,1.6-6.2
			c0.5-1.8,0.7-3.6,0.4-5.4c-0.5-3.7-3.2-6.7-6.8-7.6C37.7,14.3,34,14,30.3,14.3L30.3,14.3z M32.4,43.6c0.7-1.4,1.6-2.8,2.6-4
			c0.2-0.2,0.3-0.4,0.5-0.6c0,0.2,0,0.5,0,0.7c-0.2,4,0.2,8,1.4,11.9c0.2,0.6,0.4,1.2,0.6,1.8L31,47.7
			C31.3,46.3,31.7,44.9,32.4,43.6L32.4,43.6z M14.6,26.2c0.7-0.5,1.6-1.1,2.5-1.7c0.4-0.2,0.8-0.5,1-0.6c1.3-0.2,2.6-0.2,3.9-0.1
			c0.4,0,0.8,0,1.3,0c-3.1,3-5.7,6.4-7.7,10.2l-5-4.4C12,28.2,13.3,27.2,14.6,26.2L14.6,26.2z M99.2,99.4h-6.1
			c-0.4,0-0.7-0.3-0.7-0.7s0.3-0.7,0.7-0.7h6.1c0.4,0,0.7,0.3,0.7,0.7S99.6,99.4,99.2,99.4L99.2,99.4z M85.8,87.6h19.3
			c0.4,0,0.7,0.3,0.7,0.7s-0.3,0.7-0.7,0.7H85.8c-0.4,0-0.7-0.3-0.7-0.7S85.5,87.6,85.8,87.6z M90.5,98.7c0,0.4-0.3,0.7-0.7,0.7l0,0
			H59.4c-0.4,0-0.7-0.3-0.7-0.7S59,98,59.4,98h30.4C90.2,98,90.5,98.4,90.5,98.7L90.5,98.7L90.5,98.7z M108.3,93.5h-6.2
			c-0.4,0-0.7-0.3-0.7-0.7s0.3-0.7,0.7-0.7l0,0h6.2c0.4,0,0.7,0.3,0.7,0.7S108.7,93.5,108.3,93.5z M77.9,92.1h20.2
			c0.4,0,0.7,0.3,0.7,0.7s-0.3,0.7-0.7,0.7l0,0H77.9c-0.4,0-0.7-0.3-0.7-0.7S77.5,92.1,77.9,92.1L77.9,92.1z M59.9,9.2
			c0.8,0,1.4,0.6,1.4,1.3S60.8,12,60,12s-1.4-0.6-1.4-1.3v-0.1C58.6,9.8,59.2,9.3,59.9,9.2z M68,54.8v-4.2c0-0.4,0.3-0.7,0.7-0.7
			s0.7,0.3,0.7,0.7v4.2c0,0.4-0.3,0.7-0.7,0.7S68,55.2,68,54.8L68,54.8z M68,57.6c0-0.4,0.3-0.7,0.7-0.7s0.7,0.3,0.7,0.7v4.2
			c0,0.4-0.3,0.7-0.7,0.7S68,62.2,68,61.9V57.6z M70.1,56.9c-0.4,0-0.7-0.3-0.7-0.7s0.3-0.7,0.7-0.7h4.2c0.4,0,0.7,0.3,0.7,0.7
			s-0.3,0.7-0.7,0.7l0,0H70.1z M63.1,55.5h4.2c0.4,0,0.7,0.3,0.7,0.7s-0.3,0.7-0.7,0.7h-4.2c-0.4,0-0.7-0.3-0.7-0.7
			S62.7,55.5,63.1,55.5z M93,70.7c0.2-0.3,0.6-0.5,0.9-0.3s0.5,0.6,0.3,0.9c-0.6,1.2-0.2,2.7,1,3.3c1.2,0.6,2.7,0.2,3.3-1
			s0.2-2.7-1-3.3c-0.6-0.3-1.3-0.4-1.9-0.2c-0.4,0.1-0.8-0.1-0.9-0.4s0.1-0.8,0.4-0.9l0,0c2-0.7,4.2,0.4,4.9,2.5
			c0.7,2-0.4,4.2-2.5,4.9c-2,0.7-4.2-0.4-4.9-2.5C92.4,72.7,92.5,71.6,93,70.7L93,70.7z"/>
	</g>
</g>
</svg>
